HIERARCHY
ROOT hips
{
  OFFSET 0 10.6860622 2.3727825e-15
  CHANNELS 6 Xposition Yposition Zposition Yrotation Xrotation Zrotation
  JOINT leftUpperLeg
  {
    OFFSET 0.6642549969 -0.9402397400000004 0
    CHANNELS 3 Yrotation Xrotation Zrotation
    JOINT leftLowerLeg
    {
      OFFSET 0 -3.997221335632195 0
      CHANNELS 3 Yrotation Xrotation Zrotation
      JOINT leftFoot
      {
        OFFSET -0.13777839790000004 -4.6145792000000005 -0.22186036399999998
        CHANNELS 3 Yrotation Xrotation Zrotation
        JOINT leftToes
        {
          OFFSET -0.03777410834999995 -0.9130806927000008 0.85230013
          CHANNELS 3 Yrotation Xrotation Zrotation
          End Site
          {
            OFFSET -0.03777410834999995 -0.9130806927000008 0.85230013
          }
        }
      }
    }
  }
  JOINT rightUpperLeg
  {
    OFFSET -0.6642778626 -0.9402397400000004 0
    CHANNELS 3 Yrotation Xrotation Zrotation
    JOINT rightLowerLeg
    {
      OFFSET 0 -3.997221452859387 0
      CHANNELS 3 Yrotation Xrotation Zrotation
      JOINT rightFoot
      {
        OFFSET 0.1377926176 -4.6145792000000005 -0.22185782299999995
        CHANNELS 3 Yrotation Xrotation Zrotation
        JOINT rightToes
        {
          OFFSET 0.037780746850000047 -0.9130806927000008 0.85230167
          CHANNELS 3 Yrotation Xrotation Zrotation
          End Site
          {
            OFFSET 0.037780746850000047 -0.9130806927000008 0.85230167
          }
        }
      }
    }
  }
  JOINT spine
  {
    OFFSET 0 0.13988381660000015 0
    CHANNELS 3 Yrotation Xrotation Zrotation
    JOINT chest
    {
      OFFSET 0 0.6191039003973773 0
      CHANNELS 3 Yrotation Xrotation Zrotation
      JOINT upperChest
      {
        OFFSET 0 0.9855186130586943 0
        CHANNELS 3 Yrotation Xrotation Zrotation
        JOINT leftShoulder
        {
          OFFSET 0.1807663869 1.5087829790000005 0
          CHANNELS 3 Yrotation Xrotation Zrotation
          JOINT leftUpperArm
          {
            OFFSET 0.5985063006419806 0 0
            CHANNELS 3 Yrotation Xrotation Zrotation
            JOINT leftLowerArm
            {
              OFFSET 2.2993332369501065 0 0
              CHANNELS 3 Yrotation Xrotation Zrotation
              JOINT leftHand
              {
                OFFSET 2.395047042602395 0 0
                CHANNELS 3 Yrotation Xrotation Zrotation
                JOINT leftIndexProximal
                {
                  OFFSET 0.5766295810000004 0.04556643899499946 0.17265095988184
                  CHANNELS 3 Yrotation Xrotation Zrotation
                  JOINT leftIndexIntermediate
                  {
                    OFFSET 0.2957229000000008 -0.019352197700001517 -0.007932640616999987
                    CHANNELS 3 Yrotation Xrotation Zrotation
                    JOINT leftIndexDistal
                    {
                      OFFSET 0.19008243099999922 -0.012484908149998475 -0.002786250786000012
                      CHANNELS 3 Yrotation Xrotation Zrotation
                      End Site
                      {
                        OFFSET 0.19008243099999922 -0.012484908149998475 -0.002786250786000012
                      }
                    }
                  }
                }
                JOINT leftMiddleProximal
                {
                  OFFSET 0.5834975091000001 0.0524350405149987 0.02204081888183999
                  CHANNELS 3 Yrotation Xrotation Zrotation
                  JOINT leftMiddleIntermediate
                  {
                    OFFSET 0.33880573540000003 -0.019871473270000717 -0.00000971183179999946
                    CHANNELS 3 Yrotation Xrotation Zrotation
                    JOINT leftMiddleDistal
                    {
                      OFFSET 0.20676022730000088 -0.012221336379999448 0.0001471936708000235
                      CHANNELS 3 Yrotation Xrotation Zrotation
                      End Site
                      {
                        OFFSET 0.20676022730000088 -0.012221336379999448 0.0001471936708000235
                      }
                    }
                  }
                }
                JOINT leftLittleProximal
                {
                  OFFSET 0.5344154683999995 -0.012880921405001189 -0.24414037221816004
                  CHANNELS 3 Yrotation Xrotation Zrotation
                  JOINT leftLittleIntermediate
                  {
                    OFFSET 0.21758961730000093 -0.011650919939999227 0.011893592810000034
                    CHANNELS 3 Yrotation Xrotation Zrotation
                    JOINT leftLittleDistal
                    {
                      OFFSET 0.1475273964999999 -0.008152365682999818 0.006001092492999946
                      CHANNELS 3 Yrotation Xrotation Zrotation
                      End Site
                      {
                        OFFSET 0.1475273964999999 -0.008152365682999818 0.006001092492999946
                      }
                    }
                  }
                }
                JOINT leftRingProximal
                {
                  OFFSET 0.5799399463000003 0.026911854694997794 -0.12150566991816003
                  CHANNELS 3 Yrotation Xrotation Zrotation
                  JOINT leftRingIntermediate
                  {
                    OFFSET 0.26167887460000006 -0.013480186499999602 0.010996293000000053
                    CHANNELS 3 Yrotation Xrotation Zrotation
                    JOINT leftRingDistal
                    {
                      OFFSET 0.17667108799999987 -0.008990287899999228 0.0055541023999999065
                      CHANNELS 3 Yrotation Xrotation Zrotation
                      End Site
                      {
                        OFFSET 0.17667108799999987 -0.008990287899999228 0.0055541023999999065
                      }
                    }
                  }
                }
                JOINT leftThumbProximal
                {
                  OFFSET 0.11018806699999972 -0.09448718900500053 0.17047963138184
                  CHANNELS 3 Yrotation Xrotation Zrotation
                  JOINT leftThumbIntermediate
                  {
                    OFFSET 0.31062601459999983 -0.08126270900000132 0.15443142000000007
                    CHANNELS 3 Yrotation Xrotation Zrotation
                    JOINT leftThumbDistal
                    {
                      OFFSET 0.21627175790000086 -0.08833193599999878 0.018771167799999988
                      CHANNELS 3 Yrotation Xrotation Zrotation
                      End Site
                      {
                        OFFSET 0.21627175790000086 -0.08833193599999878 0.018771167799999988
                      }
                    }
                  }
                }
              }
            }
          }
        }
        JOINT neck
        {
          OFFSET 0 1.5463305265074576 0
          CHANNELS 3 Yrotation Xrotation Zrotation
          JOINT head
          {
            OFFSET 0 0.8456443600000344 0
            CHANNELS 3 Yrotation Xrotation Zrotation
            JOINT leftEye
            {
              OFFSET 0.30408573140000006 0.5104519199999995 0.1276382305
              CHANNELS 3 Yrotation Xrotation Zrotation
              End Site
              {
                OFFSET 0.30408573140000006 0.5104519199999995 0.1276382305
              }
            }
            JOINT rightEye
            {
              OFFSET -0.30409491089999996 0.5104519199999995 0.1276379445
              CHANNELS 3 Yrotation Xrotation Zrotation
              End Site
              {
                OFFSET -0.30409491089999996 0.5104519199999995 0.1276379445
              }
            }
            JOINT jaw
            {
              OFFSET -3.155239131000001e-7 -0.11984121820000082 0.60178107
              CHANNELS 3 Yrotation Xrotation Zrotation
              End Site
              {
                OFFSET -3.155239131000001e-7 -0.11984121820000082 0.60178107
              }
            }
          }
        }
        JOINT rightShoulder
        {
          OFFSET -0.1807303465 1.5087829790000005 0
          CHANNELS 3 Yrotation Xrotation Zrotation
          JOINT rightUpperArm
          {
            OFFSET -0.5985063796536958 0 0
            CHANNELS 3 Yrotation Xrotation Zrotation
            JOINT rightLowerArm
            {
              OFFSET -2.2993322059002854 0 0
              CHANNELS 3 Yrotation Xrotation Zrotation
              JOINT rightHand
              {
                OFFSET -2.395045314457259 0 0
                CHANNELS 3 Yrotation Xrotation Zrotation
                JOINT rightIndexProximal
                {
                  OFFSET -0.5764487688300002 0.0441371204405987 0.17361932004999997
                  CHANNELS 3 Yrotation Xrotation Zrotation
                  JOINT rightIndexIntermediate
                  {
                    OFFSET -0.29573011380000047 -0.01934826376999843 -0.007698921482999974
                    CHANNELS 3 Yrotation Xrotation Zrotation
                    JOINT rightIndexDistal
                    {
                      OFFSET -0.19008373999999884 -0.012503266380000655 -0.0026365778999999897
                      CHANNELS 3 Yrotation Xrotation Zrotation
                      End Site
                      {
                        OFFSET -0.19008373999999884 -0.012503266380000655 -0.0026365778999999897
                      }
                    }
                  }
                }
                JOINT rightMiddleProximal
                {
                  OFFSET -0.5834852037300005 0.05211639405060153 0.02307162440000001
                  CHANNELS 3 Yrotation Xrotation Zrotation
                  JOINT rightMiddleIntermediate
                  {
                    OFFSET -0.33880114510000003 -0.019952774050000954 0.0002455003561999819
                    CHANNELS 3 Yrotation Xrotation Zrotation
                    JOINT rightMiddleDistal
                    {
                      OFFSET -0.20675694929999955 -0.012273788999999091 0.00030209124000002766
                      CHANNELS 3 Yrotation Xrotation Zrotation
                      End Site
                      {
                        OFFSET -0.20675694929999955 -0.012273788999999091 0.00030209124000002766
                      }
                    }
                  }
                }
                JOINT rightLittleProximal
                {
                  OFFSET -0.5346811737299992 -0.011214256288399227 -0.24363941305000003
                  CHANNELS 3 Yrotation Xrotation Zrotation
                  JOINT rightLittleIntermediate
                  {
                    OFFSET -0.21757715980000092 -0.011771559690000988 0.01201554387
                    CHANNELS 3 Yrotation Xrotation Zrotation
                    JOINT rightLittleDistal
                    {
                      OFFSET -0.1475201849000004 -0.00822055339600003 0.006082065407000015
                      CHANNELS 3 Yrotation Xrotation Zrotation
                      End Site
                      {
                        OFFSET -0.1475201849000004 -0.00822055339600003 0.006082065407000015
                      }
                    }
                  }
                }
                JOINT rightRingProximal
                {
                  OFFSET -0.5800810755299999 0.027657985680600072 -0.12066365025000003
                  CHANNELS 3 Yrotation Xrotation Zrotation
                  JOINT rightRingIntermediate
                  {
                    OFFSET -0.26166445029999974 -0.013623118409999302 0.011164098990000045
                    CHANNELS 3 Yrotation Xrotation Zrotation
                    JOINT rightRingDistal
                    {
                      OFFSET -0.17666387530000027 -0.009072900100000503 0.005668185599999959
                      CHANNELS 3 Yrotation Xrotation Zrotation
                      End Site
                      {
                        OFFSET -0.17666387530000027 -0.009072900100000503 0.005668185599999959
                      }
                    }
                  }
                }
                JOINT rightThumbProximal
                {
                  OFFSET -0.10997596379000074 -0.09577489355940072 0.16989765924999997
                  CHANNELS 3 Yrotation Xrotation Zrotation
                  JOINT rightThumbIntermediate
                  {
                    OFFSET -0.31036620999999986 -0.08229339117999834 0.15440884469999996
                    CHANNELS 3 Yrotation Xrotation Zrotation
                    JOINT rightThumbDistal
                    {
                      OFFSET -0.21631306399999906 -0.08825326400000111 0.018656797720000014
                      CHANNELS 3 Yrotation Xrotation Zrotation
                      End Site
                      {
                        OFFSET -0.21631306399999906 -0.08825326400000111 0.018656797720000014
                      }
                    }
                  }
                }
              }
            }
          }
        }
      }
    }
  }
}
MOTION
Frames: 7
Frame Time: 0.03333333333333333
0 11.682712981546562 0 0 0 0 0 0 -5.826343164929014 -0.3712483961610101 -3.6333298826370974 5.838118207697276 0 0 0 0 0 0 0 0 5.826343164929014 0.3712483961610101 -3.6333298826370974 -5.838118207697276 0 0 0 0 0 0 0 -4.610651315171937 0 0 3.0831277533083026 0 0 0 0 0 1.5275236235667615 0 0 0 0 0 0 0 0 0 0 0 0 0 0 0 0 0 0 0 0 0 0 0 0 0 0 0 0 0 0 0 0 0 0 0 0 0 0 0 0 0 0 0 0 0 0 0 0 0 0 0 0 0 0 0 0 1.5275236235667615 0 0 0 0 0 0 0 0 0 0 0 0 0 0 1.5275236235667615 0 0 0 0 0 0 0 0 0 0 0 0 0 0 0 0 0 0 0 0 0 0 0 0 0 0 0 0 0 0 0 0 0 0 0 0 0 0 0 0 0 0 0 0 0 0 0 0 0 0 0 0 0 0 0
0 1.2610425628890933 0 0 44.998472863083215 0 0 0 -1.3182902348660588 -0.36573193627671624 -3.629498136910942 5.826704159917812 -0.007445311326187556 25.58280164782341 -0.004448358315088527 0 0 0 0 0 1.3165362118062178 0.3641045606841589 -3.629663674149783 -5.828457321447829 0.004846690341841248 25.5827997546761 0.0011005789086847904 0 0 0 0 -4.646496508244084 0 -0.07572075332813542 -9.004069486766808 -0.03267843707575991 0 0 0 -4.471085584896859 1.4479335152084145 0.1369137420131132 -15.39966838302301 -13.463278028259701 -1.7881085031253487 -57.64909107221832 18.743184446305637 7.538331790349002 -0.81964335745633 -0.02295205090689257 4.50143081866806 0 0 0 0 0 0 0 0 0 0 0 0 0 0 0 0 0 0 0 0 0 0 0 0 0 0 0 0 0 0 0 0 0 0 0 0 0 0 0 0 0 0 0 0 0 12.0957516716291 6.382947532575339 7.8263078673327 20.57379742430867 10.573289085094332 -3.0892389383171666 0 0 0 0 0 0 0 0 0 4.469333137430691 1.448001411893717 -0.13870180610532779 15.392601791828818 -13.46254673960423 1.7853770608447441 57.64557758524311 18.743725398918592 -7.540628339661678 0.8239302267561613 0.0017844723816952803 -4.508274942939337 0 0 0 0 0 0 0 0 0 0 0 0 0 0 0 0 0 0 0 0 0 0 0 0 0 0 0 0 0 0 0 0 0 0 0 0 0 0 0 0 0 0 0 0 0
0 -9.160627855768375 0 0 90 0 0 0 3.189762974023882 -0.3602162500082838 -3.625665551953411 5.815290556677744 -0.02121767325290354 51.16560390107776 -0.015973754699319737 0 0 0 0 0 -3.1932709854582195 0.3569613711422039 -3.6259961973142527 -5.818797286893928 0.012575916337966188 51.16559845497777 0.006021155868854871 0 0 0 0 -4.6823413824460856 0 -0.1485441129531681 -21.09129843457233 -0.0502771984553869 0 0 0 -8.942205334212737 1.379255334921846 0.27961279642772163 -31.737567366544425 -26.90068224158146 0.3048933283816861 -123.05069113428156 34.323524772872936 -6.832361850068608 -1.6385597622214751 0.018495725706802524 9.002729094148556 0 0 0 0 0 0 0 0 0 0 0 0 0 0 0 0 0 0 0 0 0 0 0 0 0 0 0 0 0 0 0 0 0 0 0 0 0 0 0 0 0 0 0 0 0 24.85801189211637 9.442253033453875 16.57910998221135 41.688372192648735 21.548523825291262 -2.17229449971282 0 0 0 0 0 0 0 0 0 8.93870353506729 1.3795259528674593 -0.28317603395357904 31.723320048636996 -26.89875411801557 -0.3083997816440065 123.04389212849215 34.32707695363948 6.828583504867181 1.6451713889915451 0.06832447286398037 -9.016060289547525 0 0 0 0 0 0 0 0 0 0 0 0 0 0 0 0 0 0 0 0 0 0 0 0 0 0 0 0 0 0 0 0 0 0 0 0 0 0 0 0 0 0 0 0 0
0 -9.160627855768375 0 0 90 0 0 0 3.189762974023882 -0.3602162500082838 -3.625665551953411 5.815290556677744 -0.02121767325290354 51.16560390107776 -0.015973754699319737 0 0 0 0 0 -3.1932709854582195 0.3569613711422039 -3.6259961973142527 -5.818797286893928 0.012575916337966188 51.16559845497777 0.006021155868854871 0 0 0 0 -4.6823413824460856 0 -0.1485441129531681 -21.091300264724847 -0.0502771984553869 0 0 0 -8.942205334212737 1.379255334921846 0.27961279642772163 -31.737567366544425 -26.90068224158146 0.3048933283816861 -123.05069113428156 34.323524772872936 -6.832361336843913 -1.6385597622214751 0.018495725706802524 9.002729094148556 0 0 0 0 0 0 0 0 0 0 0 0 0 0 0 0 0 0 0 0 0 0 0 0 0 0 0 0 0 0 0 0 0 0 0 0 0 0 0 0 0 0 0 0 0 24.85801189211637 9.442253033453875 16.57910998221135 41.703868480221935 21.503693502455793 -2.1722847190708006 0 0 0 0 0 0 0 0 0 8.93870353506729 1.3795259528674593 -0.28317603395357904 31.723320048636996 -26.89875411801557 -0.3083997816440065 123.04389212849215 34.32707695363948 6.828583504867181 1.6451713889915451 0.06832447286398037 -9.016060289547525 0 0 0 0 0 0 0 0 0 0 0 0 0 0 0 0 0 0 0 0 0 0 0 0 0 0 0 0 0 0 0 0 0 0 0 0 0 0 0 0 0 0 0 0 0
0 -9.160627855768375 0 0 90 0 0 0 3.189762974023882 -0.3602162500082838 -3.625665551953411 5.815290556677744 -0.02121767325290354 51.16560390107776 -0.015973754699319737 0 0 0 0 0 -3.1932709854582195 0.3569613711422039 -3.6259961973142527 -5.818797286893928 0.012575916337966188 51.16559845497777 0.006021155868854871 0 0 0 0 -4.6823413824460856 0 -0.1485441129531681 -21.091300264724847 -0.05027719488087165 0 0 0 -8.942205334212737 1.379255334921846 0.27961279642772163 -31.737567366544425 -26.90068224158146 0.3048933283816861 -123.05069113428156 34.323524772872936 -6.832360823619217 -1.6385597622214751 0.018495725706802524 9.002729094148556 0 0 0 0 0 0 0 0 0 0 0 0 0 0 0 0 0 0 0 0 0 0 0 0 0 0 0 0 0 0 0 0 0 0 0 0 0 0 0 0 0 0 0 0 0 24.85801189211637 9.442253033453875 16.57910998221135 41.71936319141696 21.458862317292805 -2.1722879332556677 0 0 0 0 0 0 0 0 0 8.93870353506729 1.3795259528674593 -0.28317603395357904 31.723320048636996 -26.89875411801557 -0.3083997816440065 123.04389212849215 34.32707695363948 6.828583504867181 1.6451713889915451 0.06832447286398037 -9.016060289547525 0 0 0 0 0 0 0 0 0 0 0 0 0 0 0 0 0 0 0 0 0 0 0 0 0 0 0 0 0 0 0 0 0 0 0 0 0 0 0 0 0 0 0 0 0
0 -9.160627855768375 0 0 90 0 0 0 3.189762974023882 -0.3602162500082838 -3.625665551953411 5.815290556677744 -0.02121767325290354 51.16560390107776 -0.015973754699319737 0 0 0 0 0 -3.1932709854582195 0.3569613711422039 -3.6259961973142527 -5.818797286893928 0.012575916337966188 51.16559845497777 0.006021155868854871 0 0 0 0 -4.6823413824460856 0 -0.1485441129531681 -21.091300264724847 -0.0502771984553869 0 0 0 -8.942205334212737 1.379255334921846 0.27961279642772163 -31.73756899496375 -26.90068224158146 0.30489380705911123 -123.05069113428156 34.323524772872936 -6.832361336843913 -1.6385597622214751 0.018495725706802524 9.002729094148556 0 0 0 0 0 0 0 0 0 0 0 0 0 0 0 0 0 0 0 0 0 0 0 0 0 0 0 0 0 0 0 0 0 0 0 0 0 0 0 0 0 0 0 0 0 24.85801189211637 9.442253033453875 16.57910998221135 41.734854213050376 21.414028408997822 -2.172303942241369 0 0 0 0 0 0 0 0 0 8.93870353506729 1.3795259528674593 -0.28317603395357904 31.723323690850517 -26.89875411801557 -0.3083997816440065 123.04389611664554 34.32707695363948 6.828585557869115 1.6451713889915451 0.06832447286398037 -9.016060289547525 0 0 0 0 0 0 0 0 0 0 0 0 0 0 0 0 0 0 0 0 0 0 0 0 0 0 0 0 0 0 0 0 0 0 0 0 0 0 0 0 0 0 0 0 0
0 -9.160627855768375 0 0 90 0 0 0 3.1897638264748167 -0.3602162500082838 -3.625665551953411 5.815290556677744 -0.02121767325290354 51.16560390107776 -0.015973754699319737 0 0 0 0 0 -3.1932709854582195 0.3569613711422039 -3.6259961973142527 -5.818797286893928 0.012575916337966188 51.16559845497777 0.006021155868854871 0 0 0 0 -4.6823413824460856 0 -0.1485441129531681 -21.09129843457233 -0.0502771984553869 0 0 0 -8.942205334212737 1.379255334921846 0.27961279642772163 -31.73757263779898 -26.90068224158146 0.3048942857365364 -123.05069113428156 34.323524772872936 -6.832361850068608 -1.6385597622214751 0.01849575572228384 9.002729937404498 0 0 0 0 0 0 0 0 0 0 0 0 0 0 0 0 0 0 0 0 0 0 0 0 0 0 0 0 0 0 0 0 0 0 0 0 0 0 0 0 0 0 0 0 0 24.85801189211637 9.442253033453875 16.57910998221135 41.75033854399302 21.3691954198485 -2.1723331512825665 0 0 0 0 0 0 0 0 0 8.93870353506729 1.3795259528674593 -0.28317603395357904 31.723325319492428 -26.898756032719767 -0.3083997816440065 123.04389611664554 34.32707695363948 6.828588615810827 1.6451713889915451 0.06832447286398037 -9.016060289547525 0 0 0 0 0 0 0 0 0 0 0 0 0 0 0 0 0 0 0 0 0 0 0 0 0 0 0 0 0 0 0 0 0 0 0 0 0 0 0 0 0 0 0 0 0
